<svg width="18" height="18" viewBox="0 0 18 18" fill="none" xmlns="http://www.w3.org/2000/svg">
<g clip-path="url(#clip0_5_862)">
<path d="M6.27047 0.592013C4.47199 1.21592 2.92098 2.40012 1.84527 3.97067C0.769554 5.54122 0.225832 7.41534 0.293966 9.31775C0.3621 11.2202 1.0385 13.0506 2.22381 14.5401C3.40912 16.0297 5.04087 17.0999 6.87937 17.5936C8.36989 17.9782 9.93151 17.9951 11.43 17.6428C12.7875 17.3379 14.0425 16.6857 15.0722 15.75C16.1439 14.7464 16.9217 13.4697 17.3222 12.0572C17.7573 10.5211 17.8348 8.90568 17.5486 7.33498H9.17859V10.807H14.0259C13.9291 11.3608 13.7215 11.8893 13.4156 12.361C13.1097 12.8326 12.7117 13.2377 12.2456 13.552C11.6538 13.9437 10.9865 14.2072 10.2867 14.3255C9.58492 14.456 8.86508 14.456 8.16328 14.3255C7.45193 14.1785 6.77903 13.885 6.1875 13.4634C5.23708 12.7907 4.52345 11.8349 4.14844 10.7325C3.76719 9.60943 3.76719 8.39195 4.14844 7.26889C4.41538 6.48169 4.85667 5.76495 5.43937 5.17217C6.10621 4.48135 6.95044 3.98754 7.87944 3.74493C8.80844 3.50233 9.78632 3.52029 10.7058 3.79686C11.4241 4.01725 12.0809 4.4025 12.6239 4.92186C13.1705 4.37811 13.7161 3.83295 14.2608 3.28639C14.542 2.99248 14.8486 2.71264 15.1256 2.4117C14.2967 1.6404 13.3237 1.04019 12.2625 0.645451C10.3299 -0.0562822 8.21528 -0.0751406 6.27047 0.592013Z" fill="white"/>
<path d="M6.27047 0.592025C8.21512 -0.075582 10.3297 -0.05722 12.2625 0.644057C13.3239 1.04148 14.2964 1.64458 15.1242 2.41874C14.843 2.71968 14.5462 3.00093 14.2594 3.29343C13.7137 3.83812 13.1686 4.38093 12.6239 4.92187C12.0809 4.40251 11.4241 4.01726 10.7058 3.79687C9.78662 3.51933 8.80877 3.50033 7.87952 3.74194C6.95027 3.98356 6.10553 4.47646 5.43796 5.16656C4.85526 5.75934 4.41397 6.47608 4.14703 7.26328L1.23187 5.00624C2.27532 2.93703 4.08199 1.35425 6.27047 0.592025Z" fill="#E33629"/>
<path d="M0.458429 7.24213C0.615 6.46556 0.875137 5.71353 1.23187 5.0062L4.14702 7.26885C3.76577 8.39191 3.76577 9.60939 4.14702 10.7324C3.17577 11.4824 2.20405 12.2362 1.23187 12.9937C0.339109 11.2166 0.0668339 9.1919 0.458429 7.24213Z" fill="#F8BD00"/>
<path d="M9.17859 7.33359H17.5486C17.8347 8.90428 17.7573 10.5197 17.3222 12.0558C16.9217 13.4683 16.1439 14.745 15.0722 15.7486C14.1314 15.0145 13.1864 14.2861 12.2456 13.552C12.712 13.2374 13.1101 12.8319 13.4161 12.3597C13.722 11.8875 13.9294 11.3585 14.0259 10.8042H9.17859C9.17718 9.64828 9.17859 8.49093 9.17859 7.33359Z" fill="#587DBD"/>
<path d="M1.23047 12.9938C2.20266 12.2438 3.17438 11.49 4.14563 10.7325C4.52139 11.8353 5.23604 12.7911 6.1875 13.4635C6.78087 13.883 7.45523 14.1742 8.1675 14.3185C8.8693 14.449 9.58914 14.449 10.2909 14.3185C10.9907 14.2002 11.658 13.9367 12.2498 13.545C13.1906 14.2791 14.1356 15.0075 15.0764 15.7416C14.0469 16.6778 12.7918 17.3305 11.4342 17.6358C9.93573 17.9881 8.37411 17.9712 6.88359 17.5866C5.70474 17.2718 4.60361 16.7169 3.64922 15.9567C2.63915 15.1546 1.81411 14.144 1.23047 12.9938Z" fill="#319F43"/>
</g>
<defs>
<clipPath id="clip0_5_862">
<rect width="18" height="18" fill="white"/>
</clipPath>
</defs>
</svg>
