<svg width="160" height="37" viewBox="0 0 160 37" fill="none" xmlns="http://www.w3.org/2000/svg">
<path d="M0.912 36.0611C0.304 36.0611 0 35.8531 0 35.4371V35.2931C0 35.0371 0.272 34.7011 0.816 34.2851C1.392 33.8371 1.68 33.3091 1.68 32.7011V5.72509C1.68 5.18109 1.536 4.73309 1.248 4.38109C0.992 3.99709 0.72 3.69309 0.432 3.46909C0.144 3.24509 0 3.03709 0 2.84509V2.74909C0 2.49309 0.224 2.23709 0.672 1.98109L4.416 0.15709C4.896 -0.0349091 5.264 -0.0509089 5.52 0.109091C5.776 0.237089 5.904 0.477089 5.904 0.82909V32.7011C5.904 33.3091 6.208 33.8371 6.816 34.2851C7.456 34.7011 7.776 35.0371 7.776 35.2931V35.4371C7.776 35.8531 7.456 36.0611 6.816 36.0611H0.912Z" fill="white"/>
<path d="M30.6398 29.2931C30.8638 28.9411 31.1678 28.8131 31.5518 28.9091C31.9358 28.9731 32.0957 29.2291 32.0317 29.6771C31.6798 31.3731 30.6558 32.9411 28.9598 34.3811C27.2638 35.8211 25.0398 36.5411 22.2878 36.5411C19.1198 36.5411 16.4638 35.4211 14.3197 33.1811C12.2077 30.9411 11.1517 27.9971 11.1517 24.3491C11.1517 20.9891 12.2398 18.1891 14.4158 15.9491C16.5918 13.6771 19.2797 12.5411 22.4797 12.5411C25.1997 12.5411 27.3598 13.2771 28.9598 14.7491C30.5918 16.1891 31.4078 17.8211 31.4078 19.6451C31.4078 21.0211 30.6558 21.9651 29.1518 22.4771L15.8558 26.8451C16.3998 28.9251 17.3598 30.5571 18.7358 31.7411C20.1438 32.8931 21.8238 33.4691 23.7758 33.4691C27.0718 33.4691 29.3598 32.0771 30.6398 29.2931ZM21.7598 14.0771C19.8397 14.0771 18.2878 14.9091 17.1038 16.5731C15.9198 18.2371 15.3278 20.3171 15.3278 22.8131C15.3278 23.7731 15.3917 24.5891 15.5197 25.2611L26.2238 21.4211C26.9918 21.1011 27.3757 20.5411 27.3757 19.7411C27.3757 18.5251 26.8158 17.2771 25.6958 15.9971C24.6078 14.7171 23.2957 14.0771 21.7598 14.0771Z" fill="white"/>
<path d="M46.0534 0.685089C47.7494 0.685089 49.2214 1.14909 50.4694 2.07709C51.7494 3.00509 52.3894 4.10909 52.3894 5.38909C52.3894 5.83709 52.2294 6.23709 51.9094 6.58909C51.5894 6.90909 51.1574 7.06909 50.6134 7.06909C49.7814 7.06909 49.1734 6.82909 48.7894 6.34909C48.4374 5.83709 48.2294 5.27709 48.1654 4.66909C48.1334 4.06109 47.8934 3.50109 47.4454 2.98909C47.0294 2.47709 46.3414 2.22109 45.3814 2.22109C43.8134 2.18909 42.7734 3.14909 42.2614 5.10109C41.7814 7.05309 41.8454 9.26109 42.4534 11.7251V13.0211H49.1254C49.3174 13.0211 49.4774 13.1011 49.6054 13.2611C49.7334 13.3891 49.7974 13.5331 49.7974 13.6931V14.3171C49.7974 14.7331 49.5734 14.9411 49.1254 14.9411H42.4534V32.6531C42.4534 33.1331 42.6294 33.5331 42.9814 33.8531C43.3334 34.1731 43.6854 34.4451 44.0374 34.6691C44.4214 34.8931 44.6134 35.1171 44.6134 35.3411V35.4851C44.6134 35.8691 44.3734 36.0611 43.8934 36.0611H37.1254C36.6454 36.0611 36.4054 35.8691 36.4054 35.4851V35.3411C36.4054 35.1171 36.5494 34.8931 36.8374 34.6691C37.1574 34.4451 37.4614 34.1731 37.7494 33.8531C38.0694 33.5331 38.2294 33.1331 38.2294 32.6531V14.9411H34.2454C33.7654 14.9411 33.5254 14.7331 33.5254 14.3171V13.6931C33.5254 13.2451 33.7654 13.0211 34.2454 13.0211H38.2294V8.84509C38.2294 6.41309 38.9174 4.44509 40.2934 2.94109C41.6694 1.43709 43.5894 0.685089 46.0534 0.685089Z" fill="white"/>
<path d="M60.3889 36.5411C58.4689 36.5411 56.9489 35.9331 55.8289 34.7171C54.7409 33.4691 54.1969 31.6611 54.1969 29.2931V14.9411H51.0289C50.5489 14.9411 50.3089 14.7011 50.3089 14.2211V13.7411C50.3089 13.2611 50.5489 13.0211 51.0289 13.0211H52.7569C54.9329 13.0211 56.1489 11.5011 56.4049 8.46109C56.4689 7.82109 56.7409 7.50109 57.2209 7.50109H57.7009C58.2129 7.50109 58.4689 7.82109 58.4689 8.46109L58.5169 13.0211H65.1409C65.3329 13.0211 65.4929 13.1011 65.6209 13.2611C65.7809 13.3891 65.8609 13.5491 65.8609 13.7411V14.2211C65.8609 14.7011 65.6209 14.9411 65.1409 14.9411H58.5169V29.3411C58.5169 30.6211 58.7889 31.6131 59.3329 32.3171C59.8769 33.0211 60.6129 33.3731 61.5409 33.3731C62.5649 33.3731 63.3809 33.1171 63.9889 32.6051C64.6289 32.0611 64.9969 31.3571 65.0929 30.4931C65.2529 30.1091 65.5249 29.9491 65.9089 30.0131C66.3249 30.0451 66.5329 30.2691 66.5329 30.6851C66.5329 32.2531 65.9569 33.6291 64.8049 34.8131C63.6849 35.9651 62.2129 36.5411 60.3889 36.5411Z" fill="white"/>
<path d="M81.0068 36.5411C77.2948 36.5411 74.2708 35.3411 71.9348 32.9411C69.6308 30.5091 68.4788 27.5971 68.4788 24.2051C68.4788 20.8771 69.5988 18.1091 71.8388 15.9011C74.0788 13.6611 76.8468 12.5411 80.1428 12.5411C83.6948 12.5411 86.6068 13.7251 88.8788 16.0931C91.1828 18.4291 92.3348 21.3091 92.3348 24.7331C92.3348 28.0931 91.2787 30.9091 89.1667 33.1811C87.0547 35.4211 84.3348 36.5411 81.0068 36.5411ZM81.5827 34.9571C83.4707 34.9571 85.0228 34.1571 86.2388 32.5571C87.4868 30.9571 88.1107 28.8291 88.1107 26.1731C88.1107 22.7811 87.3108 19.9331 85.7108 17.6291C84.1108 15.2931 82.0948 14.1251 79.6628 14.1251C77.6148 14.1251 75.9508 14.9251 74.6708 16.5251C73.3908 18.0931 72.7507 20.2051 72.7507 22.8611C72.7507 26.0611 73.5827 28.8771 75.2467 31.3091C76.9107 33.7411 79.0227 34.9571 81.5827 34.9571Z" fill="white"/>
<path d="M117.335 13.0211C117.815 13.0211 118.055 13.1971 118.055 13.5491V13.6931C118.055 13.9811 117.703 14.3651 116.999 14.8451C116.295 15.3251 115.83 15.8371 115.606 16.3811L108.022 35.1011C107.766 35.7411 107.35 36.0611 106.774 36.0611H105.286C104.71 36.0611 104.279 35.7411 103.991 35.1011L95.3985 16.3811C95.1425 15.8371 94.7265 15.3251 94.1505 14.8451C93.6065 14.3651 93.3345 13.9811 93.3345 13.6931V13.5491C93.3345 13.1971 93.5745 13.0211 94.0545 13.0211H100.727C101.175 13.0211 101.398 13.2131 101.398 13.5971V13.7411C101.398 13.8691 101.127 14.2051 100.583 14.7491C100.039 15.2611 99.8785 15.8211 100.103 16.4291L106.87 33.0371L113.447 16.8611C113.639 16.3491 113.654 15.9171 113.494 15.5651C113.366 15.2131 113.175 14.9571 112.919 14.7971C112.663 14.6371 112.406 14.4771 112.15 14.3171C111.894 14.1251 111.767 13.9331 111.767 13.7411V13.5971C111.767 13.2131 112.007 13.0211 112.487 13.0211H117.335Z" fill="white"/>
<path d="M138.312 29.2931C138.536 28.9411 138.84 28.8131 139.224 28.9091C139.608 28.9731 139.768 29.2291 139.704 29.6771C139.352 31.3731 138.328 32.9411 136.632 34.3811C134.936 35.8211 132.712 36.5411 129.96 36.5411C126.792 36.5411 124.136 35.4211 121.992 33.1811C119.88 30.9411 118.824 27.9971 118.824 24.3491C118.824 20.9891 119.912 18.1891 122.088 15.9491C124.264 13.6771 126.952 12.5411 130.152 12.5411C132.872 12.5411 135.032 13.2771 136.632 14.7491C138.264 16.1891 139.08 17.8211 139.08 19.6451C139.08 21.0211 138.328 21.9651 136.824 22.4771L123.528 26.8451C124.072 28.9251 125.032 30.5571 126.408 31.7411C127.816 32.8931 129.496 33.4691 131.448 33.4691C134.744 33.4691 137.032 32.0771 138.312 29.2931ZM129.432 14.0771C127.512 14.0771 125.96 14.9091 124.776 16.5731C123.592 18.2371 123 20.3171 123 22.8131C123 23.7731 123.064 24.5891 123.192 25.2611L133.896 21.4211C134.664 21.1011 135.048 20.5411 135.048 19.7411C135.048 18.5251 134.488 17.2771 133.368 15.9971C132.28 14.7171 130.968 14.0771 129.432 14.0771Z" fill="white"/>
<path d="M154.685 12.5411C156.061 12.5411 157.133 12.8931 157.901 13.5971C158.701 14.3011 159.101 15.1811 159.101 16.2371C159.101 17.7411 158.461 18.4931 157.181 18.4931C156.637 18.4931 156.205 18.3171 155.885 17.9651C155.565 17.6131 155.341 17.2291 155.213 16.8131C155.117 16.3971 154.877 16.0131 154.493 15.6611C154.109 15.3091 153.581 15.1331 152.909 15.1331C151.629 15.1331 150.621 15.7731 149.885 17.0531C149.181 18.3011 148.829 19.8691 148.829 21.7571V32.7011C148.829 33.3411 149.165 33.8851 149.837 34.3331C150.509 34.7491 150.845 35.0691 150.845 35.2931V35.4851C150.845 35.8691 150.525 36.0611 149.885 36.0611H143.933C143.293 36.0611 142.973 35.8691 142.973 35.4851V35.2931C142.973 35.0691 143.261 34.7491 143.837 34.3331C144.445 33.8851 144.749 33.3411 144.749 32.7011V18.1091C144.749 17.4371 144.429 16.8611 143.789 16.3811C143.149 15.9011 142.829 15.5491 142.829 15.3251V15.2291C142.829 14.9091 143.069 14.6211 143.549 14.3651L147.197 12.7331C148.029 12.3491 148.445 12.5731 148.445 13.4051V17.2451C149.533 14.1091 151.613 12.5411 154.685 12.5411Z" fill="white"/>
</svg>
