<svg width="18" height="19" viewBox="0 0 18 19" fill="none" xmlns="http://www.w3.org/2000/svg">
<path d="M8.99999 9.125C8.50271 9.125 8.0258 8.92745 7.67417 8.57582C7.32254 8.22419 7.12499 7.74728 7.12499 7.25C7.12499 6.75272 7.32254 6.2758 7.67417 5.92417C8.0258 5.57254 8.50271 5.375 8.99999 5.375C9.49727 5.375 9.97419 5.57254 10.3258 5.92417C10.6774 6.2758 10.875 6.75272 10.875 7.25C10.875 7.49623 10.8265 7.74005 10.7323 7.96753C10.638 8.19502 10.4999 8.40171 10.3258 8.57582C10.1517 8.74993 9.94501 8.88805 9.71753 8.98227C9.49004 9.0765 9.24622 9.125 8.99999 9.125ZM8.99999 2C7.60761 2 6.27225 2.55312 5.28768 3.53769C4.30312 4.52225 3.74999 5.85761 3.74999 7.25C3.74999 11.1875 8.99999 17 8.99999 17C8.99999 17 14.25 11.1875 14.25 7.25C14.25 5.85761 13.6969 4.52225 12.7123 3.53769C11.7277 2.55312 10.3924 2 8.99999 2Z" fill="#BA1A1A"/>
</svg>
