<svg width="17" height="17" viewBox="0 0 17 17" fill="none" xmlns="http://www.w3.org/2000/svg">
<path d="M8.5 2.83325C9.25144 2.83325 9.97211 3.13176 10.5035 3.66312C11.0348 4.19447 11.3333 4.91514 11.3333 5.66659C11.3333 6.41803 11.0348 7.1387 10.5035 7.67005C9.97211 8.20141 9.25144 8.49992 8.5 8.49992C7.74855 8.49992 7.02788 8.20141 6.49653 7.67005C5.96517 7.1387 5.66666 6.41803 5.66666 5.66659C5.66666 4.91514 5.96517 4.19447 6.49653 3.66312C7.02788 3.13176 7.74855 2.83325 8.5 2.83325ZM8.5 9.91659C11.6308 9.91659 14.1667 11.1845 14.1667 12.7499V14.1666H2.83333V12.7499C2.83333 11.1845 5.36916 9.91659 8.5 9.91659Z" fill="black"/>
</svg>
